<svg xmlns="http://www.w3.org/2000/svg" viewBox="0 0 240 240" width="240" height="240">
  <g fill="none" stroke="#d7a84b" stroke-width="1.2" stroke-linecap="round" stroke-linejoin="round">
    <path d="M0,0 L84,0 C58,4 30,18 18,42 C10,60 6,86 0,100 Z" fill="#d7a84b" fill-opacity="0.06" stroke="none"/>

    <path d="M0,28 C36,26 64,38 82,62 C96,82 100,108 102,134"/>
    <path d="M0,52 C24,50 46,58 60,74 C72,88 78,106 80,124"/>
    <path d="M48,0 C50,18 62,32 80,38 C98,44 116,46 134,48"/>
    <path d="M22,0 C26,12 36,22 50,26"/>

    <path d="M70,46 Q86,46 92,60 Q98,74 86,82 Q72,90 64,76 Q58,62 70,46 Z"/>
    <circle cx="80" cy="64" r="2.6" fill="#d7a84b" stroke="none"/>

    <path d="M118,42 Q132,42 138,52 Q142,62 132,68 Q120,74 116,62 Q114,52 118,42 Z" stroke-width="0.9"/>
    <circle cx="126" cy="56" r="1.8" fill="#d7a84b" stroke="none"/>

    <path d="M44,118 Q58,118 64,128 Q68,138 58,144 Q46,150 42,138 Q40,128 44,118 Z" stroke-width="0.9"/>
    <circle cx="52" cy="132" r="1.8" fill="#d7a84b" stroke="none"/>

    <path d="M104,98 q6,-3 12,2 q-2,8 -12,-2 z" fill="#d7a84b" fill-opacity="0.4" stroke="none"/>
    <path d="M150,72 q6,-2 11,3 q-3,7 -11,-3 z" fill="#d7a84b" fill-opacity="0.35" stroke="none"/>
    <path d="M76,156 q5,-2 10,3 q-3,6 -10,-3 z" fill="#d7a84b" fill-opacity="0.35" stroke="none"/>

    <circle cx="106" cy="142" r="1.4" fill="#d7a84b" stroke="none"/>
    <circle cx="148" cy="98" r="1.4" fill="#d7a84b" stroke="none"/>
    <circle cx="86" cy="100" r="1" fill="#d7a84b" stroke="none"/>
  </g>
</svg>
