<svg xmlns="http://www.w3.org/2000/svg" viewBox="0 0 200 220" width="200" height="220">
  <g fill="none" stroke="#a95405" stroke-width="1.2" stroke-linecap="round" stroke-linejoin="round">
    <path d="M40,200 C26,138 50,72 108,58 C162,46 188,82 178,128 C172,156 144,170 118,160 C96,152 88,128 104,114 C118,102 138,108 142,124"/>
    <path d="M58,188 C50,134 76,84 118,76 C150,72 168,96 162,124" opacity="0.55"/>
    <path d="M76,170 C72,134 92,98 122,94 C142,92 154,108 150,124" opacity="0.35"/>
    <circle cx="140" cy="122" r="2.4" fill="#a95405" stroke="none"/>
    <circle cx="156" cy="116" r="1.4" fill="#a95405" stroke="none"/>
    <circle cx="124" cy="130" r="1.4" fill="#a95405" stroke="none"/>
    <path d="M86,140 Q94,132 102,138 Q110,144 105,154 Q98,162 88,156 Q82,150 86,140 Z" fill="#a95405" fill-opacity="0.18" stroke-width="0.8"/>
    <path d="M44,206 q4,-6 10,-6 q-2,6 -10,6 z" fill="#a95405" fill-opacity="0.4" stroke="none"/>
  </g>
</svg>
